<svg xmlns="http://www.w3.org/2000/svg" version="1.0" preserveAspectRatio="xMidYMid meet" viewBox="32 118 245 80.03">  <g transform="translate(0.000000,300.000000) scale(0.100000,-0.100000)" fill="#f7f7f7" stroke="none"> <path d="M458 1626 c-54 -107 -98 -196 -98 -199 0 -2 27 -7 60 -10 129 -11 263 -105 322 -225 l32 -65 13 29 c21 51 16 155 -13 236 -26 72 -204 428 -214 428 -3 -1 -49 -88 -102 -194z m120 112 c20 -25 153 -297 172 -352 23 -67 35 -140 25 -156 -4 -7 -32 16 -75 62 -73 79 -160 131 -240 144 -23 4 -44 12 -47 19 -7 19 131 295 147 295 4 0 12 -6 18 -12z"/> <path d="M2720 1614 c0 -23 1 -24 16 -10 8 9 20 16 25 16 5 0 9 5 9 10 0 6 -11 10 -25 10 -20 0 -25 -5 -25 -26z"/> <path d="M935 1598 c-31 -18 -44 -40 -45 -74 0 -35 16 -52 76 -82 23 -12 44 -28 48 -37 19 -50 -63 -79 -86 -30 -7 17 -19 25 -35 25 -21 0 -23 -4 -18 -22 25 -81 134 -98 170 -27 30 57 11 94 -65 133 -49 25 -60 45 -35 70 21 21 32 20 52 -4 10 -11 27 -20 39 -20 29 0 22 33 -14 60 -28 22 -57 25 -87 8z"/> <path d="M1223 1602 c-13 -4 -32 -15 -43 -24 -26 -23 -30 -22 -30 2 0 14 -7 20 -22 20 l-23 0 0 -245 0 -245 23 0 c23 0 23 0 20 120 -2 66 1 120 5 120 5 0 20 -9 34 -20 31 -24 101 -27 144 -5 91 48 93 212 2 258 -37 19 -83 27 -110 19z m90 -62 c37 -30 52 -80 34 -122 -18 -44 -38 -59 -86 -65 -36 -5 -44 -2 -76 30 -40 40 -46 81 -18 127 30 52 100 66 146 30z"/> <path d="M1535 1597 c-100 -47 -127 -168 -53 -244 64 -66 161 -64 219 6 l30 36 -26 3 c-16 2 -37 -6 -56 -22 -53 -45 -121 -30 -154 35 l-16 29 131 0 130 0 -6 28 c-11 47 -38 95 -65 115 -34 24 -96 31 -134 14z m106 -47 c10 -6 26 -24 34 -40 l16 -30 -101 0 c-65 0 -100 4 -100 11 0 6 13 24 29 40 31 31 83 39 122 19z"/> <path d="M2163 1590 c-55 -25 -83 -70 -83 -135 0 -80 40 -129 123 -149 48 -11 106 13 139 58 l30 41 -28 3 c-16 2 -30 -2 -32 -8 -19 -57 -105 -68 -153 -21 -24 24 -29 38 -29 76 0 38 5 52 29 76 42 42 102 41 139 -1 26 -29 55 -39 66 -22 10 17 -55 81 -92 92 -50 13 -60 13 -109 -10z"/> <path d="M2495 1596 c-102 -46 -127 -168 -50 -246 33 -33 39 -35 99 -35 47 0 69 5 83 18 26 23 36 22 28 -3 -5 -16 -2 -20 19 -20 l26 0 0 145 0 145 -26 0 c-21 0 -25 -4 -21 -20 6 -25 3 -25 -31 -1 -37 27 -90 34 -127 17z m132 -71 c30 -34 31 -102 3 -138 -39 -49 -130 -45 -165 9 -32 50 -12 133 39 155 37 16 99 3 123 -26z"/> <path d="M1780 1455 l0 -145 24 0 c24 0 24 2 28 106 3 97 5 107 27 125 31 25 75 24 101 -3 17 -19 20 -35 20 -125 l0 -103 25 0 c25 0 25 0 25 99 0 115 -12 156 -51 176 -41 22 -102 19 -124 -5 -10 -11 -22 -20 -27 -20 -5 0 -6 9 -3 20 5 16 2 20 -19 20 l-26 0 0 -145z"/> <path d="M335 1355 c-3 -8 -7 -21 -9 -28 -3 -9 15 -11 75 -8 95 4 155 -14 232 -69 30 -22 69 -61 86 -86 39 -59 41 -44 3 17 -59 91 -159 158 -267 178 -81 15 -115 14 -120 -4z"/> <path d="M343 1263 c-17 -3 -23 -12 -23 -30 0 -20 4 -24 18 -18 123 51 280 13 369 -89 33 -38 34 -39 19 -10 -20 41 -88 99 -146 126 -45 21 -184 33 -237 21z"/> <path d="M440 1193 c-64 -11 -100 -25 -100 -39 0 -8 18 -34 39 -57 70 -75 192 -99 292 -56 27 12 49 25 49 29 0 5 -21 26 -46 49 -60 52 -165 86 -234 74z m157 -52 c45 -22 77 -56 69 -70 -4 -5 -30 -14 -59 -20 -77 -16 -152 6 -201 58 -31 32 -29 44 9 54 38 11 144 -2 182 -22z"/> </g> </svg>